<svg style="stroke:black;stroke-width:10px" version="1.1" id="Layer_1" xmlns="http://www.w3.org/2000/svg" xmlns:xlink="http://www.w3.org/1999/xlink" x="0px" y="0px" viewBox="-5 -5 132.881 132.88" enable-background="new 0 0 122.881 122.88" xml:space="preserve"><g><path d="M61.44,0c16.966,0,32.326,6.877,43.445,17.995s17.996,26.479,17.996,43.444c0,16.967-6.877,32.327-17.996,43.445 S78.406,122.88,61.44,122.88c-16.966,0-32.326-6.877-43.444-17.995S0,78.406,0,61.439c0-16.965,6.877-32.326,17.996-43.444 S44.474,0,61.44,0L61.44,0z M100.33,22.55C90.377,12.598,76.627,6.441,61.44,6.441 c-15.188,0-28.938,6.156-38.89,16.108c-9.953,9.953-16.108,23.702-16.108,38.89c0,15.188,6.156,28.938,16.108,38.891 c9.952,9.952,23.702,16.108,38.89,16.108c15.187,0,28.937-6.156,38.89-16.108c9.953-9.953,16.107-23.702,16.107-38.891 C116.438,46.252,110.283,32.502,100.33,22.55L100.33,22.55z"/></g></svg>