<svg style="stroke:black;stroke-width:2px" version="1.1" id="Layer_1" xmlns="http://www.w3.org/2000/svg" xmlns:xlink="http://www.w3.org/1999/xlink" x="0px" y="0px" viewBox="31.1 31.1 60.6 60.6" enable-background="new 0 0 122.879 122.88" xml:space="preserve"><g><path d="M 80.549 37.291 c 1.391 -1.392 3.647 -1.392 5.039 0 s 1.392 3.648 0 5.04 L 66.479 61.439 l 19.109 19.109 c 1.392 1.392 1.392 3.647 0 5.04 c -1.392 1.392 -3.648 1.392 -5.039 0 L 61.439 66.479 L 42.33 85.589 c -1.392 1.392 -3.648 1.392 -5.04 0 c -1.392 -1.393 -1.392 -3.648 0 -5.04 l 19.109 -19.109 L 37.291 42.331 c -1.392 -1.392 -1.392 -3.648 0 -5.04 s 3.648 -1.392 5.04 0 L 61.439 56.4 L 80.549 37.291 L 80.549 37.291 z"/></g></svg>