<svg style="stroke:black;stroke-width:10px" version="1.1" id="Layer_1" xmlns="http://www.w3.org/2000/svg" xmlns:xlink="http://www.w3.org/1999/xlink" x="0px" y="0px" viewBox="-5 -5 132.881 132.88" enable-background="new 0 0 122.88 122.88" xml:space="preserve"><g><path d="M 8.792 0 h 105.296 c 2.422 0 4.62 0.988 6.212 2.58 s 2.58 3.791 2.58 6.212 v 105.295 c 0 2.422 -0.988 4.62 -2.58 6.212 s -3.79 2.58 -6.212 2.58 H 8.792 c -2.421 0 -4.62 -0.988 -6.212 -2.58 S 0 116.51 0 114.088 V 8.792 C 0 6.371 0.988 4.172 2.58 2.58 S 6.371 0 8.792 0 L 8.792 0 z M 114.088 7.17 H 8.792 c -0.442 0 -0.847 0.184 -1.143 0.479 C 7.354 7.945 7.17 8.35 7.17 8.792 v 105.295 c 0 0.442 0.184 0.848 0.479 1.144 c 0.296 0.296 0.701 0.479 1.143 0.479 h 105.296 c 0.442 0 0.848 -0.184 1.144 -0.479 c 0.295 -0.296 0.479 -0.701 0.479 -1.144 V 8.792 c 0 -0.443 -0.185 -0.848 -0.479 -1.143 C 114.936 7.354 114.53 7.17 114.088 7.17 L 114.088 7.17 z"/></g></svg>